<?xml version="1.0" standalone="no"?>
<!DOCTYPE svg PUBLIC "-//W3C//DTD SVG 20010904//EN"
 "http://www.w3.org/TR/2001/REC-SVG-20010904/DTD/svg10.dtd">
<svg version="1.0" xmlns="http://www.w3.org/2000/svg"
 width="512.000000pt" height="512.000000pt" viewBox="0 0 512.000000 512.000000"
 preserveAspectRatio="xMidYMid meet">
<metadata>
Created by potrace 1.14, written by Peter Selinger 2001-2017
</metadata>
<g transform="translate(0.000000,512.000000) scale(0.100000,-0.100000)"
fill="#000000" stroke="none">
<path d="M1005 5113 c-185 -43 -321 -177 -355 -349 -6 -31 -8 -868 -7 -2234 2
-2067 3 -2187 20 -2230 57 -145 183 -256 328 -289 29 -7 624 -10 1719 -8
l1675 2 31 22 c70 50 64 -175 61 2545 -2 2353 -3 2454 -20 2480 -10 15 -30 35
-45 45 -26 17 -100 18 -1707 19 -924 1 -1689 -1 -1700 -3z m2773 -639 c41 -8
86 -50 102 -95 26 -73 -16 -156 -91 -182 -27 -9 -321 -12 -1247 -12 -1205 0
-1211 0 -1238 21 -73 54 -92 127 -51 197 49 83 -57 77 1293 77 661 0 1215 -3
1232 -6z m-1145 -801 c17 -11 42 -35 55 -54 20 -28 23 -43 20 -87 -6 -72 -51
-119 -123 -130 -28 -4 -318 -7 -646 -6 -570 0 -598 1 -629 20 -97 56 -105 182
-16 248 38 29 107 31 754 29 520 -2 555 -3 585 -20z m1552 -3193 c1 -85 -1
-162 -3 -170 -3 -13 -182 -15 -1570 -15 -1543 0 -1568 1 -1600 20 -62 37 -75
72 -77 206 l-1 119 1625 -2 1626 -3 0 -155z"/>
</g>
</svg>
